<?xml version="1.0" ?><svg id="Layer_1" style="enable-background:new 0 0 320 320;" version="1.1" viewBox="0 0 320 320" xml:space="preserve" xmlns="http://www.w3.org/2000/svg" xmlns:xlink="http://www.w3.org/1999/xlink"><style type="text/css">
	.st0{fill:#414042;}
</style><g><path class="st0" d="M286.32,120.74l-124-88c-1.39-0.98-3.24-0.98-4.63,0l-124,88C32.63,121.49,32,122.7,32,124v160   c0,2.21,1.79,4,4,4h248c2.21,0,4-1.79,4-4V124C288,122.7,287.37,121.49,286.32,120.74z M280,280H40V126.07L160,40.9l120,85.16V280z   "/><path class="st0" d="M68,264H56v-12c0-2.21-1.79-4-4-4s-4,1.79-4,4v16c0,2.21,1.79,4,4,4h16c2.21,0,4-1.79,4-4S70.21,264,68,264z"/><path class="st0" d="M264,264h-12c-2.21,0-4,1.79-4,4s1.79,4,4,4h16c2.21,0,4-1.79,4-4v-16c0-2.21-1.79-4-4-4s-4,1.79-4,4V264z"/><path class="st0" d="M157.68,52.36l-16,11.35c-1.8,1.28-2.23,3.78-0.95,5.58c1.28,1.8,3.77,2.23,5.58,0.95L160,60.52l13.69,9.71   c0.7,0.5,1.51,0.74,2.31,0.74c1.25,0,2.49-0.59,3.27-1.69c1.28-1.8,0.85-4.3-0.95-5.58l-16-11.36   C160.93,51.37,159.07,51.37,157.68,52.36z"/><path class="st0" d="M120,168v30.67c0,2.58-0.85,5.14-2.4,7.2l-8.8,11.73c-0.91,1.21-1.05,2.83-0.38,4.19   c0.68,1.35,2.06,2.21,3.58,2.21h32c0,8.82,7.18,16,16,16s16-7.18,16-16h32c1.51,0,2.9-0.86,3.58-2.21   c0.68-1.36,0.53-2.98-0.38-4.19l-8.8-11.73c-1.55-2.06-2.4-4.62-2.4-7.2V168c0-22.06-17.94-40-40-40S120,145.94,120,168z M160,232   c-4.41,0-8-3.59-8-8h16C168,228.41,164.41,232,160,232z M192,168v30.67c0,4.3,1.42,8.56,4,12l4,5.33h-80l4-5.33   c2.58-3.44,4-7.7,4-12V168c0-17.65,14.36-32,32-32S192,150.35,192,168z"/><path class="st0" d="M235.01,218.01c0.53,0.24,1.09,0.35,1.64,0.35c1.53,0,2.99-0.88,3.65-2.36c5.11-11.39,7.7-23.5,7.7-36   s-2.59-24.61-7.7-36c-0.91-2.02-3.27-2.91-5.29-2.01c-2.01,0.9-2.92,3.27-2.01,5.29c4.65,10.35,7,21.36,7,32.72   s-2.36,22.37-7,32.72C232.09,214.74,232.99,217.1,235.01,218.01z"/><path class="st0" d="M256,180c0,13.68-2.82,26.9-8.38,39.28c-0.9,2.02,0,4.38,2.01,5.29c0.53,0.24,1.09,0.35,1.64,0.35   c1.53,0,2.99-0.88,3.65-2.36c6.02-13.42,9.08-27.74,9.08-42.55s-3.05-29.13-9.08-42.55c-0.91-2.02-3.27-2.92-5.29-2.01   c-2.01,0.9-2.91,3.27-2.01,5.29C253.18,153.1,256,166.32,256,180z"/><path class="st0" d="M220.41,211.46c0.53,0.24,1.09,0.35,1.64,0.35c1.53,0,2.99-0.88,3.65-2.36c4.18-9.31,6.3-19.22,6.3-29.45   s-2.12-20.14-6.3-29.45c-0.91-2.02-3.27-2.92-5.29-2.01c-2.01,0.9-2.92,3.27-2.01,5.29c3.72,8.28,5.6,17.08,5.6,26.18   s-1.88,17.9-5.6,26.18C217.49,208.19,218.39,210.56,220.41,211.46z"/><path class="st0" d="M84.99,141.99c-2.01-0.9-4.38-0.01-5.29,2.01c-5.11,11.39-7.7,23.5-7.7,36s2.59,24.61,7.7,36   c0.67,1.48,2.13,2.36,3.65,2.36c0.55,0,1.1-0.11,1.64-0.35c2.01-0.9,2.92-3.27,2.01-5.29c-4.65-10.35-7-21.36-7-32.72   s2.36-22.37,7-32.72C87.91,145.26,87.01,142.9,84.99,141.99z"/><path class="st0" d="M64,180c0-13.68,2.82-26.9,8.38-39.28c0.9-2.02,0-4.38-2.01-5.29c-2.01-0.9-4.38-0.01-5.29,2.01   C59.05,150.87,56,165.18,56,180s3.05,29.13,9.08,42.55c0.67,1.48,2.13,2.36,3.65,2.36c0.55,0,1.1-0.11,1.64-0.35   c2.01-0.9,2.92-3.27,2.01-5.29C66.82,206.9,64,193.68,64,180z"/><path class="st0" d="M99.59,148.54c-2.01-0.9-4.38-0.01-5.29,2.01C90.12,159.86,88,169.77,88,180s2.12,20.14,6.3,29.45   c0.67,1.48,2.13,2.36,3.65,2.36c0.55,0,1.1-0.11,1.64-0.35c2.01-0.9,2.92-3.27,2.01-5.29C97.88,197.9,96,189.09,96,180   s1.88-17.9,5.6-26.18C102.51,151.81,101.61,149.44,99.59,148.54z"/></g></svg>