<?xml version="1.0" ?><!DOCTYPE svg  PUBLIC '-//W3C//DTD SVG 1.1//EN'  'http://www.w3.org/Graphics/SVG/1.1/DTD/svg11.dtd'><svg height="64px" id="Image" style="enable-background:new 0 0 64 64;" version="1.1" viewBox="0 0 64 64" width="64px" xml:space="preserve" xmlns="http://www.w3.org/2000/svg" xmlns:xlink="http://www.w3.org/1999/xlink"><g id="XMLID_5_"><g><polygon points="36,28 36,30 32,30 32,23.12 36,23.12   " style="fill:#C2E7FF;"/><rect height="5" style="fill:#C2E7FF;" width="4" x="32" y="30"/><rect height="12" style="fill:#C2E7FF;" width="3" x="32" y="39"/><rect height="12" style="fill:#C2E7FF;" width="6" x="35" y="39"/><path d="M10,46.67c0-2.6,1.88-6.67,3-6.67s3,4.07,3,6.67c0,1.34-0.88,3.33-3,3.33S10,48.01,10,46.67z" style="fill:#85CEFF;"/><path d="M51,50c-2.12,0-3-1.99-3-3.33c0-2.6,1.88-6.67,3-6.67s3,4.07,3,6.67C54,48.01,53.12,50,51,50z" style="fill:#85CEFF;"/><polygon points="61,30 49,30 46.5,27.5 37,18 49,18   " style="fill:#85CEFF;"/><polygon points="31.59,13.42 32.29,14.12 31.58,14.83 30.17,13.42 30.88,12.71   " style="fill:#0C67BD;"/><rect height="1.994" style="fill:#0C67BD;" transform="matrix(0.7074 -0.7069 0.7069 0.7074 -3.0331 25.0943)" width="1.966" x="27.807" y="15.213"/><polygon points="27.41,19 26.02,20.4 24.6,18.98 26,17.59   " style="fill:#0C67BD;"/><rect height="2.008" style="fill:#0C67BD;" transform="matrix(0.707 -0.7072 0.7072 0.707 -8.5945 22.8059)" width="1.966" x="22.242" y="20.771"/><polygon points="24,18.98 24,19 23.21,19 22,19 22,17 24,17   " style="fill:#0C67BD;"/><rect height="1.994" style="fill:#0C67BD;" transform="matrix(0.707 -0.7072 0.7072 0.707 -11.3802 21.6522)" width="1.966" x="19.457" y="23.563"/><rect height="2" style="fill:#0C67BD;" width="2.08" x="17.83" y="17"/><polygon points="19.06,27.35 19,27.41 19,27.29   " style="fill:#0C67BD;"/><polygon points="19,27.29 19,27.41 18.21,28.21 17.67,28.74 16.26,27.33 17.65,25.94   " style="fill:#0C67BD;"/><path d="M13.34,18.25l0.95-0.96C14.48,17.11,14.73,17,15,17h0.74v2h-0.33l-0.66,0.66L13.34,18.25z" style="fill:#0C67BD;"/><path d="M14.59,29L15,28.72l1.28,1.42l-0.57,0.57C15.52,30.89,15.26,31,15,31h-1.16v-2H14.59z" style="fill:#0C67BD;"/><polygon points="13.27,21.14 11.8,22.62 10.38,21.2 11.86,19.73   " style="fill:#0C67BD;"/><rect height="2" style="fill:#0C67BD;" width="1.97" x="9.9" y="29"/><rect height="1.994" style="fill:#0C67BD;" transform="matrix(0.7072 -0.707 0.707 0.7072 -14.4577 13.3378)" width="2.093" x="7.828" y="23.128"/><rect height="2" style="fill:#0C67BD;" width="1.971" x="5.97" y="29"/><polygon points="7.37,27.05 5.89,28.52 4.48,27.11 5.95,25.63   " style="fill:#0C67BD;"/><path d="M6,49v2H5c-0.55,0-1-0.45-1-1v-1H6z" style="fill:#0C67BD;"/><rect height="2" style="fill:#0C67BD;" width="2" x="4" y="45"/><rect height="2" style="fill:#0C67BD;" width="2" x="4" y="41"/><rect height="2" style="fill:#0C67BD;" width="2" x="4" y="37"/><rect height="2" style="fill:#0C67BD;" width="2" x="4" y="33"/><path d="M4,31H3c-0.4,0-0.77-0.24-0.92-0.62c-0.16-0.37-0.07-0.8,0.21-1.09L3,28.59L3.41,29L4,29.59v0.82    V31z" style="fill:#0C67BD;"/></g><g><polyline points="    33,14 37,18 46.5,27.5 49,30 50,31   " style="fill:none;stroke:#0C67BD;stroke-width:2;stroke-linecap:round;stroke-linejoin:round;stroke-miterlimit:10;"/><polyline points="37,18 49,18     61,30 49,30   " style="fill:none;stroke:#0C67BD;stroke-width:2;stroke-linejoin:round;stroke-miterlimit:10;"/><line style="fill:none;stroke:#0C67BD;stroke-width:2;stroke-linecap:round;stroke-linejoin:round;" x1="32" x2="33" y1="13" y2="14"/><polyline points="31.29,13.71 31.59,13.42 32,13   " style="fill:none;stroke:#0C67BD;stroke-width:2;stroke-linejoin:round;"/><line style="fill:none;stroke:#0C67BD;stroke-width:2;stroke-linejoin:round;" x1="32" x2="31" y1="51" y2="51"/><line style="fill:none;stroke:#0C67BD;stroke-width:2;stroke-linejoin:round;stroke-dasharray:2.2,2.2;" x1="28.8" x2="21.1" y1="51" y2="51"/><polyline points="20,51 19,51 19,50   " style="fill:none;stroke:#0C67BD;stroke-width:2;stroke-linejoin:round;"/><line style="fill:none;stroke:#0C67BD;stroke-width:2;stroke-linejoin:round;stroke-dasharray:2,2;" x1="19" x2="19" y1="48" y2="29"/><polyline points="19,28 19,27.41 19,27.29 19,27   " style="fill:none;stroke:#0C67BD;stroke-width:2;stroke-linejoin:round;"/><polyline points="32,51 35,51     41,51 45,51 45,29   " style="fill:none;stroke:#0C67BD;stroke-width:2;stroke-linejoin:round;stroke-miterlimit:10;"/><polyline points="41,51 41,39     35,39 32,39   " style="fill:none;stroke:#0C67BD;stroke-width:2;stroke-linejoin:round;stroke-miterlimit:10;"/><line style="fill:none;stroke:#0C67BD;stroke-width:2;stroke-linejoin:round;stroke-miterlimit:10;" x1="35" x2="35" y1="39" y2="51"/><line style="fill:none;stroke:#0C67BD;stroke-width:2;stroke-linejoin:round;stroke-miterlimit:10;" x1="36" x2="36" y1="30" y2="35"/><polyline points="32,23.12     36,23.12 36,28   " style="fill:none;stroke:#0C67BD;stroke-width:2;stroke-linejoin:round;stroke-miterlimit:10;"/><polyline points="32,30 36,30     40,30 40,35 36,35 32,35   " style="fill:none;stroke:#0C67BD;stroke-width:2;stroke-linejoin:round;stroke-miterlimit:10;"/><path d="M51,40    c1.12,0,3,4.07,3,6.67c0,1.34-0.88,3.33-3,3.33s-3-1.99-3-3.33C48,44.07,49.88,40,51,40z" style="fill:none;stroke:#0C67BD;stroke-width:2;stroke-linejoin:round;stroke-miterlimit:10;"/><path d="M13,40    c-1.12,0-3,4.07-3,6.67c0,1.34,0.88,3.33,3,3.33s3-1.99,3-3.33C16,44.07,14.12,40,13,40z" style="fill:none;stroke:#0C67BD;stroke-width:2;stroke-linejoin:round;stroke-miterlimit:10;"/><polyline points="51,46 51,50     51,53   " style="fill:none;stroke:#0C67BD;stroke-width:2;stroke-linejoin:round;stroke-miterlimit:10;"/><polyline points="13,46 13,50     13,53   " style="fill:none;stroke:#0C67BD;stroke-width:2;stroke-linejoin:round;stroke-miterlimit:10;"/><polyline points="59,33 59,50     56,50   " style="fill:none;stroke:#0C67BD;stroke-width:2;stroke-linejoin:round;stroke-miterlimit:10;"/><polyline points="49,37 49,34     55,34 55,39   " style="fill:none;stroke:#0C67BD;stroke-width:2;stroke-linejoin:round;stroke-miterlimit:10;"/></g></g></svg>