<?xml version="1.0" ?><svg data-name="001" id="_001" viewBox="0 0 128 128" xmlns="http://www.w3.org/2000/svg"><defs><style>.cls-1{opacity:0.3;}.cls-2{fill:#97c1ff;}.cls-3{fill:#eef6ff;}.cls-4{fill:#5cbeff;}.cls-5{fill:#fff;}.cls-6{fill:#6d6daa;}.cls-7{fill:#96d7ff;}.cls-8{opacity:0.5;}</style></defs><title/><g class="cls-1"><path class="cls-2" d="M126.69,47.66a30,30,0,0,0-23.51-25,19.69,19.69,0,0,1-10.93-6.55A37,37,0,0,0,28,31.44,21,21,0,0,1,17.11,45.11C2.94,52.47-4.15,71.57,8.76,89.5a16.6,16.6,0,0,0,6.35,4.91,20.58,20.58,0,0,1,10,10.88,28.49,28.49,0,0,0,42.62,12.64A20.06,20.06,0,0,1,84.38,115a29,29,0,0,0,36-33.79,20.08,20.08,0,0,1,2.51-14.13A29.83,29.83,0,0,0,126.69,47.66Z"/><path class="cls-3" d="M53.12,27a9,9,0,0,0-17.43-4.16,4.82,4.82,0,0,0-7.81,3.76c0,.14,0,.28,0,.41a7.19,7.19,0,0,0,2.39,14H50.77a7.19,7.19,0,0,0,2.35-14Z"/><g class="cls-1"><path class="cls-4" d="M50.77,38.6H30.29a7.22,7.22,0,0,1-7.12-6A7.19,7.19,0,0,0,30.29,41H50.77a7.19,7.19,0,0,0,7.12-8.42A7.22,7.22,0,0,1,50.77,38.6Z"/></g><path class="cls-5" d="M27.9,29.41c0-.14,0-.27,0-.41a4.82,4.82,0,0,1,7.81-3.76A9,9,0,0,1,53.12,29.4,7.22,7.22,0,0,1,57.89,35a7.13,7.13,0,0,0-4.77-8,9,9,0,0,0-17.43-4.16,4.82,4.82,0,0,0-7.81,3.76c0,.14,0,.28,0,.41a7.12,7.12,0,0,0-4.74,8A7.21,7.21,0,0,1,27.9,29.41Z"/><path class="cls-6" d="M50.77,42H30.29a8.19,8.19,0,0,1-3.4-15.66,5.82,5.82,0,0,1,8.37-5A10,10,0,0,1,54.18,26c0,.11,0,.23,0,.34A8.19,8.19,0,0,1,50.77,42ZM32.7,22.8a3.81,3.81,0,0,0-3.82,3.8c0,.11,0,.22,0,.32a1,1,0,0,1-.67,1,6.19,6.19,0,0,0,2.06,12H50.77a6.19,6.19,0,0,0,2-12.06,1,1,0,0,1-.67-1.06,8,8,0,0,0-15.5-3.69,1,1,0,0,1-1.56.43A3.79,3.79,0,0,0,32.7,22.8Z"/><path class="cls-3" d="M50.77,26.6a7.25,7.25,0,0,1,2.37.4"/><path class="cls-6" d="M53.14,28a1,1,0,0,1-.33-.06,6.24,6.24,0,0,0-2-.34,1,1,0,0,1,0-2,8.24,8.24,0,0,1,2.7.45A1,1,0,0,1,53.14,28Z"/><path class="cls-3" d="M27.89,27a7.25,7.25,0,0,1,2.39-.4"/><path class="cls-6" d="M27.89,28a1,1,0,0,1-.33-1.94,8.24,8.24,0,0,1,2.72-.46,1,1,0,0,1,0,2,6.24,6.24,0,0,0-2.06.35A1,1,0,0,1,27.89,28Z"/><path class="cls-3" d="M35.66,22.81A4.83,4.83,0,0,1,37,24.38"/><path class="cls-6" d="M37,25.38a1,1,0,0,1-.89-.53,3.84,3.84,0,0,0-1-1.24A1,1,0,0,1,36.27,22a5.87,5.87,0,0,1,1.58,1.89A1,1,0,0,1,37,25.38Z"/><path class="cls-3" d="M9.1,85.5A11.29,11.29,0,0,1,30.89,80.3,6,6,0,0,1,40.66,85c0,.17,0,.34,0,.51a9,9,0,0,1-3,17.49H12A9,9,0,0,1,9.1,85.5Z"/><g class="cls-1"><path class="cls-4" d="M12,100H37.64a9,9,0,0,0,8.91-7.52A9,9,0,0,1,37.64,103H12A9,9,0,0,1,3.13,92.48,9,9,0,0,0,12,100Z"/></g><path class="cls-5" d="M40.63,88.51c0-.17,0-.34,0-.51a6,6,0,0,0-9.77-4.7A11.28,11.28,0,0,0,9.1,88.5a9,9,0,0,0-6,7,8.91,8.91,0,0,1,6-10A11.29,11.29,0,0,1,30.89,80.3,6,6,0,0,1,40.66,85c0,.17,0,.34,0,.51a8.9,8.9,0,0,1,5.92,10A9,9,0,0,0,40.63,88.51Z"/><path class="cls-6" d="M37.64,104H12A10,10,0,0,1,8,84.83c0-.2,0-.39,0-.58a12.3,12.3,0,0,1,23.31-5.43,7,7,0,0,1,10.32,6,10,10,0,0,1-4,19.16ZM20.32,74A10.22,10.22,0,0,0,10.09,85.39a1,1,0,0,1-.67,1.05A8,8,0,0,0,12,102H37.64A8,8,0,0,0,40.3,86.46a1,1,0,0,1-.67-1c0-.14,0-.28,0-.43a5,5,0,0,0-8.15-3.91A1,1,0,0,1,30,80.66,10.34,10.34,0,0,0,20.32,74Z"/><path class="cls-3" d="M12,85a9.06,9.06,0,0,0-3,.5"/><path class="cls-6" d="M9.07,86.5a1,1,0,0,1-.33-1.95A10.05,10.05,0,0,1,12,84a1,1,0,1,1,0,2,8.05,8.05,0,0,0-2.64.44A1,1,0,0,1,9.07,86.5Z"/><path class="cls-3" d="M40.63,85.5a9.06,9.06,0,0,0-3-.5"/><path class="cls-6" d="M40.63,86.5a1,1,0,0,1-.33-.06A8.05,8.05,0,0,0,37.64,86a1,1,0,0,1,0-2,10.05,10.05,0,0,1,3.32.56,1,1,0,0,1-.33,1.94Z"/><path class="cls-3" d="M30.93,80.27a6,6,0,0,0-1.64,2"/><path class="cls-6" d="M29.29,83.22a1,1,0,0,1-.88-1.47,7.09,7.09,0,0,1,1.91-2.28,1,1,0,0,1,1.23,1.58,5.08,5.08,0,0,0-1.37,1.63A1,1,0,0,1,29.29,83.22Z"/><path class="cls-3" d="M87,21.66a6,6,0,0,1,11.62-2.77,3.21,3.21,0,0,1,5.21,2.51c0,.09,0,.18,0,.27A4.79,4.79,0,0,1,102.18,31H88.52A4.8,4.8,0,0,1,87,21.66Z"/><path class="cls-5" d="M87,23.66a6,6,0,0,1,11.62-2.77,3.21,3.21,0,0,1,5.21,2.51c0,.09,0,.18,0,.27a4.81,4.81,0,0,1,3.11,3.54,4.76,4.76,0,0,0-3.11-5.54c0-.09,0-.18,0-.27a3.21,3.21,0,0,0-5.21-2.51A6,6,0,0,0,87,21.66a4.76,4.76,0,0,0-3.14,5.55A4.81,4.81,0,0,1,87,23.66Z"/><g class="cls-1"><path class="cls-4" d="M102.18,29H88.52a4.81,4.81,0,0,1-4.71-3.78,4.75,4.75,0,0,0-.11,1A4.81,4.81,0,0,0,88.52,31h13.66A4.81,4.81,0,0,0,107,26.2a4.75,4.75,0,0,0-.11-1A4.81,4.81,0,0,1,102.18,29Z"/></g><path class="cls-6" d="M102.18,32H88.52a5.79,5.79,0,0,1-2.61-11v0A7,7,0,0,1,99,17.5,4.22,4.22,0,0,1,104.77,21a5.79,5.79,0,0,1-2.59,11ZM92.94,16a5,5,0,0,0-5,5,4.92,4.92,0,0,0,0,.55,1,1,0,0,1-.67,1.06A3.8,3.8,0,0,0,88.52,30h13.66a3.79,3.79,0,0,0,1.26-7.38,1,1,0,0,1-.67-1c0-.06,0-.12,0-.19a2.21,2.21,0,0,0-3.59-1.72,1,1,0,0,1-1.56-.43A5,5,0,0,0,92.94,16Z"/><path class="cls-3" d="M88.52,21.4a4.83,4.83,0,0,0-1.58.26"/><path class="cls-6" d="M86.94,22.66a1,1,0,0,1-.33-1.95,5.84,5.84,0,0,1,1.91-.32,1,1,0,0,1,0,2,3.83,3.83,0,0,0-1.25.21A1,1,0,0,1,86.94,22.66Z"/><path class="cls-3" d="M103.77,21.67a4.83,4.83,0,0,0-1.59-.27"/><path class="cls-6" d="M103.77,22.67a1,1,0,0,1-.33-.06,3.84,3.84,0,0,0-1.26-.21,1,1,0,0,1,0-2,5.83,5.83,0,0,1,1.92.32,1,1,0,0,1-.33,1.94Z"/><path class="cls-3" d="M98.6,18.88a3.22,3.22,0,0,0-.87,1"/><path class="cls-6" d="M97.72,20.92a1,1,0,0,1-.88-1.47A4.25,4.25,0,0,1,98,18.09a1,1,0,0,1,1.23,1.58,2.24,2.24,0,0,0-.6.72A1,1,0,0,1,97.72,20.92Z"/><path class="cls-5" d="M122.51,67a1,1,0,0,1-.71-.29,1.05,1.05,0,0,1-.29-.71.85.85,0,0,1,.08-.38.93.93,0,0,1,.21-.33,1,1,0,0,1,.9-.27.6.6,0,0,1,.19.06.55.55,0,0,1,.17.09.6.6,0,0,1,.15.12.83.83,0,0,1,.22.33,1,1,0,0,1,.08.38,1,1,0,0,1-.3.71l-.15.12a.55.55,0,0,1-.17.09.61.61,0,0,1-.19.06Z"/><path class="cls-5" d="M120.51,71h-6a1,1,0,0,1,0-2h6a1,1,0,0,1,0,2Z"/><path class="cls-5" d="M118.51,67h-7a1,1,0,0,1,0-2h7a1,1,0,0,1,0,2Z"/><path class="cls-5" d="M110.51,71h-2a1,1,0,0,1,0-2h2a1,1,0,0,1,0,2Z"/><path class="cls-5" d="M118.51,75h-8a1,1,0,0,1,0-2h8a1,1,0,0,1,0,2Z"/><path class="cls-5" d="M13,62a1,1,0,0,1-.7-1.71,1,1,0,0,1,1.41,0,1,1,0,0,1,0,1.42A1,1,0,0,1,13,62Z"/><path class="cls-5" d="M14,58H12a1,1,0,1,1,0-2h2a1,1,0,0,1,0,2Z"/><path class="cls-5" d="M17,54H7a1,1,0,0,1,0-2H17a1,1,0,0,1,0,2Z"/><path class="cls-5" d="M8,58H4a1,1,0,1,1,0-2H8a1,1,0,0,1,0,2Z"/><path class="cls-5" d="M9,62H1a1,1,0,0,1,0-2H9a1,1,0,0,1,0,2Z"/><path class="cls-3" d="M72.77,93a8,8,0,0,1,11.88-8.85,10.49,10.49,0,0,1,18.8,5.25A7.5,7.5,0,0,1,101,104H73a5.5,5.5,0,0,1-.23-11Z"/><path class="cls-5" d="M72.77,96a7.62,7.62,0,0,1-.2-3,5.47,5.47,0,0,0-4.84,7A5.48,5.48,0,0,1,72.77,96Z"/><path class="cls-5" d="M80.51,86a8,8,0,0,1,4.14,1.16,10.49,10.49,0,0,1,18.8,5.25,7.5,7.5,0,0,1,4.9,5.62,7.49,7.49,0,0,0-4.9-8.62,10.49,10.49,0,0,0-18.8-5.25A8,8,0,0,0,72.51,91a7.72,7.72,0,0,0,.15,1.45A8,8,0,0,1,80.51,86Z"/><path class="cls-4" d="M72.77,90c0-.18-.08-.38-.11-.57,0,.2-.07.39-.09.59Z"/><g class="cls-1"><path class="cls-4" d="M101,101H73a5.5,5.5,0,0,1-5.28-4,5.44,5.44,0,0,0-.22,1.46A5.5,5.5,0,0,0,73,104h28a7.43,7.43,0,0,0,7.34-9A7.5,7.5,0,0,1,101,101Z"/></g><path class="cls-6" d="M73,105a6.5,6.5,0,0,1-1.42-12.84A8.54,8.54,0,0,1,71.51,91,9,9,0,0,1,84.4,82.9a11.49,11.49,0,0,1,20,5.81A8.5,8.5,0,0,1,101,105Zm7.5-21a7,7,0,0,0-6.77,8.76A1,1,0,0,1,72.81,94a4.5,4.5,0,0,0,.19,9h28a6.5,6.5,0,0,0,2.12-12.64,1,1,0,0,1-.67-.84,9.49,9.49,0,0,0-17-4.75,1,1,0,0,1-1.32.25A7,7,0,0,0,80.51,84Z"/><path class="cls-6" d="M103,94.75a1,1,0,0,1-1-1.31A9.51,9.51,0,0,0,93,81a1,1,0,0,1,0-2,11.51,11.51,0,0,1,10.94,15.06A1,1,0,0,1,103,94.75Z"/><path class="cls-6" d="M76.63,95.36a1,1,0,0,1-.66-.25A4.5,4.5,0,0,0,73,94a1,1,0,0,1,0-2,6.5,6.5,0,0,1,4.28,1.61,1,1,0,0,1-.66,1.75Z"/><path class="cls-6" d="M87,87.34a1,1,0,0,1-.81-.42A7,7,0,0,0,80.51,84a1,1,0,0,1,0-2,9,9,0,0,1,7.32,3.76A1,1,0,0,1,87,87.34Z"/></g><circle class="cls-7" cx="64" cy="9" r="5"/><g class="cls-8"><path class="cls-5" d="M64,7a5,5,0,0,1,4.76,3.53A4.94,4.94,0,0,0,69,9,5,5,0,0,0,59,9a4.94,4.94,0,0,0,.24,1.53A5,5,0,0,1,64,7Z"/></g><path class="cls-6" d="M64,15a6,6,0,1,1,6-6A6,6,0,0,1,64,15ZM64,5a4,4,0,1,0,4,4A4,4,0,0,0,64,5Z"/><path class="cls-6" d="M64,70a6,6,0,1,1,6-6A6,6,0,0,1,64,70Zm0-10a4,4,0,1,0,4,4A4,4,0,0,0,64,60Z"/><g class="cls-8"><path class="cls-6" d="M18.89,41.46a1,1,0,0,1-.46-.11l-.89-.46a1,1,0,1,1,.92-1.77l.89.46a1,1,0,0,1-.46,1.89Z"/><path class="cls-6" d="M58.41,62.08a1,1,0,0,1-.46-.11l-1.88-1A1,1,0,0,1,57,59.21l1.88,1a1,1,0,0,1-.46,1.89Zm-6.59-3.44a1,1,0,0,1-.46-.11l-1.88-1a1,1,0,0,1,.93-1.77l1.88,1a1,1,0,0,1-.46,1.89Zm-6.59-3.44a1,1,0,0,1-.46-.11l-1.88-1a1,1,0,0,1,.93-1.77l1.88,1a1,1,0,0,1-.46,1.89Zm-6.59-3.44a1,1,0,0,1-.46-.11l-1.88-1a1,1,0,0,1,.93-1.77l1.88,1a1,1,0,0,1-.46,1.89Zm-6.59-3.44a1,1,0,0,1-.46-.11l-1.88-1a1,1,0,0,1,.93-1.77l1.88,1a1,1,0,0,1-.46,1.89ZM25.47,44.9a1,1,0,0,1-.46-.11l-1.88-1A1,1,0,0,1,24.05,42l1.88,1a1,1,0,0,1-.46,1.89Z"/><path class="cls-6" d="M64,65a1,1,0,0,1-.46-.11l-.89-.46a1,1,0,1,1,.92-1.77l.89.46A1,1,0,0,1,64,65Z"/><path class="cls-6" d="M109.11,41.46a1,1,0,0,1-.46-1.89l.89-.46a1,1,0,1,1,.92,1.77l-.89.46A1,1,0,0,1,109.11,41.46Z"/><path class="cls-6" d="M69.59,62.08a1,1,0,0,1-.46-1.89l1.88-1A1,1,0,0,1,71.94,61l-1.88,1A1,1,0,0,1,69.59,62.08Zm6.59-3.44a1,1,0,0,1-.46-1.89l1.88-1a1,1,0,0,1,.93,1.77l-1.88,1A1,1,0,0,1,76.18,58.65Zm6.59-3.44a1,1,0,0,1-.46-1.89l1.88-1a1,1,0,0,1,.93,1.77l-1.88,1A1,1,0,0,1,82.77,55.21Zm6.59-3.44a1,1,0,0,1-.46-1.89l1.88-1a1,1,0,0,1,.93,1.77l-1.88,1A1,1,0,0,1,89.35,51.77Zm6.59-3.44a1,1,0,0,1-.46-1.89l1.88-1a1,1,0,0,1,.93,1.77l-1.88,1A1,1,0,0,1,95.94,48.34Zm6.59-3.44a1,1,0,0,1-.46-1.89l1.88-1a1,1,0,0,1,.93,1.77l-1.88,1A1,1,0,0,1,102.53,44.9Z"/><path class="cls-6" d="M64,65a1,1,0,0,1-.46-1.89l.89-.46a1,1,0,1,1,.92,1.77l-.89.46A1,1,0,0,1,64,65Z"/><path class="cls-6" d="M18,89a1,1,0,0,1-.46-1.89l.89-.46a1,1,0,1,1,.92,1.77l-.89.46A1,1,0,0,1,18,89Z"/><path class="cls-6" d="M23.59,86.08a1,1,0,0,1-.46-1.89l1.88-1A1,1,0,0,1,25.94,85l-1.88,1A1,1,0,0,1,23.59,86.08Zm6.59-3.44a1,1,0,0,1-.46-1.89l1.88-1a1,1,0,0,1,.93,1.77l-1.88,1A1,1,0,0,1,30.18,82.65Zm6.59-3.44a1,1,0,0,1-.46-1.89l1.88-1a1,1,0,0,1,.93,1.77l-1.88,1A1,1,0,0,1,36.77,79.21Zm6.59-3.44a1,1,0,0,1-.46-1.89l1.88-1a1,1,0,0,1,.93,1.77l-1.88,1A1,1,0,0,1,43.35,75.77Zm6.59-3.44a1,1,0,0,1-.46-1.89l1.88-1a1,1,0,0,1,.93,1.77l-1.88,1A1,1,0,0,1,49.94,72.34Zm6.59-3.44A1,1,0,0,1,56.06,67l1.88-1a1,1,0,0,1,.93,1.77l-1.88,1A1,1,0,0,1,56.53,68.9Z"/><path class="cls-6" d="M63.11,65.46a1,1,0,0,1-.46-1.89l.89-.46a1,1,0,1,1,.92,1.77l-.89.46A1,1,0,0,1,63.11,65.46Z"/><path class="cls-6" d="M110,89a1,1,0,0,1-.46-.11l-.89-.46a1,1,0,1,1,.92-1.77l.89.46A1,1,0,0,1,110,89Z"/><path class="cls-6" d="M104.41,86.08a1,1,0,0,1-.46-.11l-1.88-1a1,1,0,0,1,.93-1.77l1.88,1a1,1,0,0,1-.46,1.89Zm-6.59-3.44a1,1,0,0,1-.46-.11l-1.88-1a1,1,0,0,1,.93-1.77l1.88,1a1,1,0,0,1-.46,1.89Zm-6.59-3.44a1,1,0,0,1-.46-.11l-1.88-1a1,1,0,0,1,.93-1.77l1.88,1a1,1,0,0,1-.46,1.89Zm-6.59-3.44a1,1,0,0,1-.46-.11l-1.88-1a1,1,0,0,1,.93-1.77l1.88,1a1,1,0,0,1-.46,1.89Zm-6.59-3.44a1,1,0,0,1-.46-.11l-1.88-1a1,1,0,0,1,.93-1.77l1.88,1a1,1,0,0,1-.46,1.89ZM71.47,68.9a1,1,0,0,1-.46-.11l-1.88-1A1,1,0,0,1,70.05,66l1.88,1a1,1,0,0,1-.46,1.89Z"/><path class="cls-6" d="M64.89,65.46a1,1,0,0,1-.46-.11l-.89-.46a1,1,0,1,1,.92-1.77l.89.46a1,1,0,0,1-.46,1.89Z"/><path class="cls-6" d="M64,18a1,1,0,0,1-1-1V16a1,1,0,0,1,2,0v1A1,1,0,0,1,64,18Z"/><path class="cls-6" d="M64,59.11a1,1,0,0,1-1-1v-2a1,1,0,0,1,2,0v2A1,1,0,0,1,64,59.11Zm0-6.85a1,1,0,0,1-1-1v-2a1,1,0,0,1,2,0v2A1,1,0,0,1,64,52.26Zm0-6.85a1,1,0,0,1-1-1v-2a1,1,0,0,1,2,0v2A1,1,0,0,1,64,45.4Zm0-6.85a1,1,0,0,1-1-1v-2a1,1,0,1,1,2,0v2A1,1,0,0,1,64,38.55Zm0-6.85a1,1,0,0,1-1-1v-2a1,1,0,0,1,2,0v2A1,1,0,0,1,64,31.7Zm0-6.85a1,1,0,0,1-1-1v-2a1,1,0,0,1,2,0v2A1,1,0,0,1,64,24.85Z"/><path class="cls-6" d="M64,65a1,1,0,0,1-1-1V63a1,1,0,0,1,2,0v1A1,1,0,0,1,64,65Z"/><path class="cls-6" d="M64,67a1,1,0,0,1-1-1V65a1,1,0,0,1,2,0v1A1,1,0,0,1,64,67Z"/><path class="cls-6" d="M64,107.21a1,1,0,0,1-1-1V104.3a1,1,0,0,1,2,0v1.91A1,1,0,0,1,64,107.21Zm0-6.7a1,1,0,0,1-1-1V97.6a1,1,0,0,1,2,0v1.92A1,1,0,0,1,64,100.51Zm0-6.7a1,1,0,0,1-1-1V90.89a1,1,0,0,1,2,0v1.92A1,1,0,0,1,64,93.81Zm0-6.7a1,1,0,0,1-1-1V84.19a1,1,0,0,1,2,0v1.92A1,1,0,0,1,64,87.11Zm0-6.7a1,1,0,0,1-1-1V77.49a1,1,0,0,1,2,0V79.4A1,1,0,0,1,64,80.4Zm0-6.7a1,1,0,0,1-1-1V70.79a1,1,0,0,1,2,0V72.7A1,1,0,0,1,64,73.7Z"/><path class="cls-6" d="M64,113a1,1,0,0,1-1-1v-1a1,1,0,0,1,2,0v1A1,1,0,0,1,64,113Z"/></g><path class="cls-3" d="M95.47,62a16,16,0,0,0-23.75-17.7,21,21,0,0,0-37.61,10.5A15,15,0,0,0,39,84H95a11,11,0,0,0,.47-22Z"/><g class="cls-1"><path class="cls-4" d="M95,80H39A15,15,0,0,1,24.15,67,14.94,14.94,0,0,0,39,84H95a11,11,0,0,0,10.81-13A11,11,0,0,1,95,80Z"/><path class="cls-4" d="M96,58.07s0,0,0-.07a16.07,16.07,0,0,0-.14-2,16.84,16.84,0,0,1-.39,2Z"/></g><path class="cls-5" d="M34.11,58.83C35.2,48.25,44.14,39.63,55,40c7.33.25,12.42,2.67,15.25,5.76,2.42-1.47,9.83-.59,14.12,1.17S94.89,52.12,95.87,60A15.26,15.26,0,0,0,96,58,16,16,0,0,0,71.72,44.33a21,21,0,0,0-37.61,10.5A14.85,14.85,0,0,0,24.15,71,15,15,0,0,1,34.11,58.83Z"/><path class="cls-5" d="M89,63.81C96.23,63,104.9,70,105.82,75A10.93,10.93,0,0,0,96,62.07C94.17,62.07,90.55,62.67,89,63.81Z"/><path class="cls-6" d="M95,85H39a16,16,0,0,1-5.81-30.9A22,22,0,0,1,72,43,17,17,0,0,1,97,58a16.69,16.69,0,0,1-.3,3.13A12,12,0,0,1,95,85ZM55,37A19.93,19.93,0,0,0,35.11,54.93a1,1,0,0,1-.67.84A14,14,0,0,0,39,83H95a10,10,0,0,0,.43-20,1,1,0,0,1-.93-1.25A15,15,0,0,0,72.24,45.19a1,1,0,0,1-1.32-.25A19.85,19.85,0,0,0,55,37Z"/><path class="cls-6" d="M35,64.5a1,1,0,0,1-1-.69A22,22,0,0,1,55,35a1,1,0,0,1,0,2A20,20,0,0,0,36,63.19a1,1,0,0,1-1,1.31Z"/><path class="cls-6" d="M87.76,65.73A1,1,0,0,1,87.1,64,12,12,0,0,1,95,61a1,1,0,0,1,0,2,10,10,0,0,0-6.59,2.48A1,1,0,0,1,87.76,65.73Z"/><path class="cls-6" d="M67,49.68a1,1,0,0,1-.81-1.58A17.05,17.05,0,0,1,80,41a1,1,0,0,1,0,2,15,15,0,0,0-12.2,6.27A1,1,0,0,1,67,49.68Z"/><circle class="cls-7" cx="12" cy="37" r="5"/><g class="cls-8"><path class="cls-5" d="M12,35a5,5,0,0,1,4.76,3.53A4.94,4.94,0,0,0,17,37,5,5,0,0,0,7,37a4.94,4.94,0,0,0,.24,1.53A5,5,0,0,1,12,35Z"/></g><path class="cls-6" d="M12,43a6,6,0,1,1,6-6A6,6,0,0,1,12,43Zm0-10a4,4,0,1,0,4,4A4,4,0,0,0,12,33Z"/><circle class="cls-7" cx="12" cy="91" r="5"/><g class="cls-8"><path class="cls-5" d="M12,89a5,5,0,0,1,4.76,3.53A4.94,4.94,0,0,0,17,91,5,5,0,0,0,7,91a4.94,4.94,0,0,0,.24,1.53A5,5,0,0,1,12,89Z"/></g><path class="cls-6" d="M12,97a6,6,0,1,1,6-6A6,6,0,0,1,12,97Zm0-10a4,4,0,1,0,4,4A4,4,0,0,0,12,87Z"/><circle class="cls-7" cx="116" cy="91" r="5"/><g class="cls-8"><path class="cls-5" d="M116,89a5,5,0,0,1,4.76,3.53A4.94,4.94,0,0,0,121,91a5,5,0,0,0-10,0,4.94,4.94,0,0,0,.24,1.53A5,5,0,0,1,116,89Z"/></g><path class="cls-6" d="M116,97a6,6,0,1,1,6-6A6,6,0,0,1,116,97Zm0-10a4,4,0,1,0,4,4A4,4,0,0,0,116,87Z"/><circle class="cls-7" cx="64" cy="119" r="5"/><g class="cls-8"><path class="cls-5" d="M64,117a5,5,0,0,1,4.76,3.53A4.94,4.94,0,0,0,69,119a5,5,0,0,0-10,0,4.94,4.94,0,0,0,.24,1.53A5,5,0,0,1,64,117Z"/></g><path class="cls-6" d="M64,125a6,6,0,1,1,6-6A6,6,0,0,1,64,125Zm0-10a4,4,0,1,0,4,4A4,4,0,0,0,64,115Z"/><circle class="cls-7" cx="116" cy="37" r="5"/><g class="cls-8"><path class="cls-5" d="M116,35a5,5,0,0,1,4.76,3.53A4.94,4.94,0,0,0,121,37a5,5,0,0,0-10,0,4.94,4.94,0,0,0,.24,1.53A5,5,0,0,1,116,35Z"/></g><path class="cls-6" d="M116,43a6,6,0,1,1,6-6A6,6,0,0,1,116,43Zm0-10a4,4,0,1,0,4,4A4,4,0,0,0,116,33Z"/></svg>