<?xml version="1.0" ?><svg viewBox="0 0 64 64" xmlns="http://www.w3.org/2000/svg"><g id="flat"><polygon points="54 57 10 57 10 17 32 7 54 17 54 57" style="fill:#348fd9"/><polygon points="10 44.923 10 57 54 57 54 17 46.844 13.747 10 44.923" style="fill:#3086cd"/><polygon points="32 7 10 17 10 19 32 9 54 19 54 17 32 7" style="fill:#3086cd"/><polygon points="54 33 33 33 33 6 31 6 31 33 10 33 10 35 31 35 31 57 33 57 33 35 54 35 54 33" style="fill:#62a9e6"/><polygon points="54 13 32 3 10 13 4 16 4 20 10 17 32 7 54 17 60 20 60 16 54 13" style="fill:#f35244"/><polygon points="54 13 49.919 11.145 46.844 13.747 54 17 60 20 60 16 54 13" style="fill:#ea4a3b"/><rect height="35" rx="3" ry="3" style="fill:#e0e0de" width="20" x="3" y="26"/><rect height="27" style="fill:#4d5e78" width="20" x="3" y="30"/><path d="M4.994,60.815A3,3,0,0,0,6,61H20a3,3,0,0,0,3-3V57H6.49Z" style="fill:#d6d6d4"/><path d="M20,26H18.647l-1.569,4H23V29A3,3,0,0,0,20,26Z" style="fill:#d6d6d4"/><polygon points="6.49 57 23 57 23 30 17.078 30 6.49 57" style="fill:#44546c"/><polygon points="19 52 7 52 7 39 13 36 19 39 19 52" style="fill:#348fd9"/><polygon points="19 46 19 39 13 36 13 46 19 46" style="fill:#ffb531"/><rect height="6" style="fill:#ffb531" width="6" x="13" y="46"/><polygon points="14 37 12 37 12 45 7 45 7 47 12 47 12 52 14 52 14 47 19 47 19 45 14 45 14 37" style="fill:#62a9e6"/><polygon points="13 36 7 39 7 41 13 38 19 41 19 39 13 36" style="fill:#62a9e6"/><path d="M26.841,44.609,23,40v8.714l-3.021-3.452a2.436,2.436,0,1,0-3.652,3.226l4.365,4.9-.31.465a6.063,6.063,0,0,0,.31,7.15H28V47.81A5,5,0,0,0,26.841,44.609Z" style="fill:#fec9a3"/><path d="M25,52a1,1,0,0,1-.833-.445l-2-3a1,1,0,0,1,1.664-1.11l2,3A1,1,0,0,1,25,52Z" style="fill:#feb784"/><path d="M46,22a3,3,0,0,0-5.953-.533,2.961,2.961,0,0,0,.282,1.888A5.314,5.314,0,0,1,41,25.784V26h4a6.091,6.091,0,0,1,.7-2.693A2.936,2.936,0,0,0,46,22Z" style="fill:#ffb531"/><path d="M41,26h4a0,0,0,0,1,0,0v3a1,1,0,0,1-1,1H42a1,1,0,0,1-1-1V26A0,0,0,0,1,41,26Z" style="fill:#e0e0de"/><rect height="2" style="fill:#ffb531" width="2" x="42" y="14"/><rect height="2" style="fill:#ffb531" width="2" x="35" y="21"/><rect height="2" style="fill:#ffb531" width="2" x="49" y="21"/><rect height="2" style="fill:#ffb531" transform="translate(-0.912 31.9) rotate(-45)" width="2.001" x="37.05" y="16.05"/><rect height="2" style="fill:#ffb531" transform="translate(-5.012 41.799) rotate(-45)" width="2.001" x="46.949" y="25.95"/><rect height="2.001" style="fill:#ffb531" transform="translate(-7.912 34.799) rotate(-45)" width="2" x="37.05" y="25.949"/><rect height="2.001" style="fill:#ffb531" transform="translate(1.988 38.899) rotate(-45)" width="2" x="46.95" y="16.05"/><path d="M42.461,19.047a2.828,2.828,0,0,0-.481.132A2.99,2.99,0,0,1,44,22a2.936,2.936,0,0,1-.3,1.307A6.091,6.091,0,0,0,43,26h2a6.091,6.091,0,0,1,.7-2.693A2.936,2.936,0,0,0,46,22,3,3,0,0,0,42.461,19.047Z" style="fill:#ffa912"/><path d="M43,29a1,1,0,0,1-1,1h2a1,1,0,0,0,1-1V26H43Z" style="fill:#d6d6d4"/><rect height="6" style="fill:#e0e0de" width="14" x="14" y="16"/><rect height="2" style="fill:#d6d6d4" width="14" x="14" y="20"/><rect height="2" style="fill:#b0b0ae" width="8" x="17" y="19"/><polygon points="33 9.455 33 7.455 32 7 31 7.455 31 9.455 32 9 33 9.455" style="fill:#45a7d1"/><path d="M46,45a3,3,0,0,0-5.953-.533,2.961,2.961,0,0,0,.282,1.888A5.314,5.314,0,0,1,41,48.784V49h4a6.091,6.091,0,0,1,.7-2.693A2.936,2.936,0,0,0,46,45Z" style="fill:#ffb531"/><path d="M41,49h4a0,0,0,0,1,0,0v3a1,1,0,0,1-1,1H42a1,1,0,0,1-1-1V49A0,0,0,0,1,41,49Z" style="fill:#e0e0de"/><rect height="2" style="fill:#ffb531" width="2" x="42" y="37"/><rect height="2" style="fill:#ffb531" width="2" x="35" y="44"/><rect height="2" style="fill:#ffb531" width="2" x="49" y="44"/><rect height="2" style="fill:#ffb531" transform="translate(-17.175 38.636) rotate(-45)" width="2.001" x="37.05" y="39.05"/><rect height="2" style="fill:#ffb531" transform="translate(-21.276 48.535) rotate(-45)" width="2.001" x="46.949" y="48.95"/><rect height="2.001" style="fill:#ffb531" transform="translate(-24.175 41.536) rotate(-45)" width="2" x="37.05" y="48.949"/><rect height="2.001" style="fill:#ffb531" transform="translate(-14.276 45.636) rotate(-45)" width="2" x="46.95" y="39.05"/><path d="M42.461,42.047a2.828,2.828,0,0,0-.481.132A2.99,2.99,0,0,1,44,45a2.936,2.936,0,0,1-.3,1.307A6.091,6.091,0,0,0,43,49h2a6.091,6.091,0,0,1,.7-2.693A2.936,2.936,0,0,0,46,45,3,3,0,0,0,42.461,42.047Z" style="fill:#ffa912"/><path d="M43,52a1,1,0,0,1-1,1h2a1,1,0,0,0,1-1V49H43Z" style="fill:#d6d6d4"/></g></svg>