<?xml version="1.0" ?><svg id="icon" viewBox="0 0 512 512" xmlns="http://www.w3.org/2000/svg"><title/><rect height="49.222" style="fill:#ccc" width="46.474" x="232.763" y="405.531"/><path d="M290.005,454.753H222a17.229,17.229,0,0,0-17.228,17.228v13.6H307.233v-13.6A17.229,17.229,0,0,0,290.005,454.753Z" style="fill:gray"/><rect height="20.124" style="fill:#999" width="46.474" x="232.763" y="405.531"/><polygon points="386.352 225.969 125.648 225.969 57.071 373.048 454.929 373.048 386.352 225.969" style="fill:#82a3d8"/><rect height="32.484" style="fill:#446996" width="397.858" x="57.071" y="373.048"/><path d="M256,37.766a5.671,5.671,0,0,1-5.678-5.678,5.667,5.667,0,0,1,6.785-5.564,5.352,5.352,0,0,1,1.064.326,5.478,5.478,0,0,1,.98.525,5.83,5.83,0,0,1,.866.7,6.935,6.935,0,0,1,.71.866,6.458,6.458,0,0,1,.511.979,5.757,5.757,0,0,1,.326,1.065,5.858,5.858,0,0,1,.114,1.107,5.742,5.742,0,0,1-.114,1.107,5.449,5.449,0,0,1-.326,1.065,5.9,5.9,0,0,1-.511.979,6.161,6.161,0,0,1-.71.866,5.925,5.925,0,0,1-.866.71,6.456,6.456,0,0,1-.98.525,6.667,6.667,0,0,1-1.064.327A5.926,5.926,0,0,1,256,37.766Z" style="fill:#ffcf64"/><path d="M256,189.309a5.94,5.94,0,0,1-1.107-.113,5.749,5.749,0,0,1-2.045-.852,5.672,5.672,0,0,1-.865-8.73,6.909,6.909,0,0,1,.865-.71,6.5,6.5,0,0,1,.98-.525,5.466,5.466,0,0,1,1.065-.313,5.678,5.678,0,0,1,5.124,9.582,5.83,5.83,0,0,1-.866.7,5.754,5.754,0,0,1-2.044.852A5.948,5.948,0,0,1,256,189.309Z" style="fill:#ffcf64"/><path d="M331.771,113.537a5.68,5.68,0,0,1-4.017-9.694,6.092,6.092,0,0,1,.866-.71,5.8,5.8,0,0,1,.98-.512,5.419,5.419,0,0,1,1.064-.326,5.544,5.544,0,0,1,2.215,0,5.748,5.748,0,0,1,1.064.326,6.431,6.431,0,0,1,.98.512,6.909,6.909,0,0,1,.865.71,5.678,5.678,0,0,1-4.017,9.694Z" style="fill:#ffcf64"/><path d="M180.228,113.537a5.676,5.676,0,1,1,1.107-11.242,5.428,5.428,0,0,1,1.065.326,5.789,5.789,0,0,1,.979.512,6.045,6.045,0,0,1,.867.71,5.678,5.678,0,0,1-4.018,9.694Z" style="fill:#ffcf64"/><path d="M309.571,59.966a5.66,5.66,0,0,1-5.565-6.785,5.52,5.52,0,0,1,.327-1.065,5.006,5.006,0,0,1,.525-.979,5.19,5.19,0,0,1,.7-.866,5.708,5.708,0,0,1,5.138-1.547,5.574,5.574,0,0,1,1.051.312,5.887,5.887,0,0,1,.979.526,5.18,5.18,0,0,1,.866.709,5.262,5.262,0,0,1,.709.866,5.887,5.887,0,0,1,.526.979,6.606,6.606,0,0,1,.326,1.065,5.778,5.778,0,0,1-1.561,5.125A5.72,5.72,0,0,1,309.571,59.966Z" style="fill:#ffcf64"/><path d="M202.428,167.108a5.972,5.972,0,0,1-1.12-.1,7.014,7.014,0,0,1-1.051-.326,5.887,5.887,0,0,1-.979-.526,5.18,5.18,0,0,1-.866-.709,5.233,5.233,0,0,1-.71-.867,5.344,5.344,0,0,1-.525-.979,6.97,6.97,0,0,1-.327-1.05,6.323,6.323,0,0,1,0-2.229,7.737,7.737,0,0,1,.327-1.065,6.542,6.542,0,0,1,.525-.979,5.115,5.115,0,0,1,.71-.851,4.539,4.539,0,0,1,.866-.71,5.006,5.006,0,0,1,.979-.525,5.626,5.626,0,0,1,1.051-.327,5.713,5.713,0,0,1,5.124,1.562,4.553,4.553,0,0,1,.71.851,5.539,5.539,0,0,1,.525.979,6.189,6.189,0,0,1,.326,1.065,5.887,5.887,0,0,1,.113,1.121,5.692,5.692,0,0,1-5.678,5.664Z" style="fill:#ffcf64"/><path d="M309.571,167.108a5.853,5.853,0,0,1-1.108-.1,7.208,7.208,0,0,1-1.064-.326,6.5,6.5,0,0,1-.979-.526,5.076,5.076,0,0,1-.852-.709,5.762,5.762,0,0,1-1.235-1.846,5.668,5.668,0,0,1-.327-1.05,5.552,5.552,0,0,1,0-2.229,6.194,6.194,0,0,1,.327-1.065,5.475,5.475,0,0,1,.525-.979,4.515,4.515,0,0,1,.71-.851,4.453,4.453,0,0,1,.852-.71,5.441,5.441,0,0,1,.979-.525,5.775,5.775,0,0,1,1.064-.327,5.885,5.885,0,0,1,2.229,0,5.626,5.626,0,0,1,1.051.327,5.006,5.006,0,0,1,.979.525,4.539,4.539,0,0,1,.866.71,5.109,5.109,0,0,1,.709.851,6.548,6.548,0,0,1,.526.979,7.6,7.6,0,0,1,.326,1.065,6.26,6.26,0,0,1,0,2.229,6.854,6.854,0,0,1-.326,1.05,5.347,5.347,0,0,1-.526.979,5.628,5.628,0,0,1-1.575,1.576,5.887,5.887,0,0,1-.979.526,7.014,7.014,0,0,1-1.051.326A5.88,5.88,0,0,1,309.571,167.108Z" style="fill:#ffcf64"/><path d="M202.428,59.966a5.669,5.669,0,0,1-5.677-5.677,4.819,4.819,0,0,1,.113-1.108,5.486,5.486,0,0,1,.313-1.065,5.883,5.883,0,0,1,.525-.979,5.267,5.267,0,0,1,.71-.866,5.681,5.681,0,0,1,5.124-1.547,6.037,6.037,0,0,1,1.065.312,6.548,6.548,0,0,1,.979.526,5.117,5.117,0,0,1,.852.709,4.68,4.68,0,0,1,.71.866,5.06,5.06,0,0,1,.525.979,5.518,5.518,0,0,1,.326,1.065,5.744,5.744,0,0,1,.113,1.108,5.709,5.709,0,0,1-.439,2.171,5.47,5.47,0,0,1-.525.979,5.157,5.157,0,0,1-.71.867A5.714,5.714,0,0,1,202.428,59.966Z" style="fill:#ffcf64"/><circle cx="256" cy="107.86" r="41.646" style="fill:#ffcf64"/><polygon points="149.585 373.048 331.771 373.048 129.849 225.969 125.648 225.969 92.856 296.298 149.585 373.048" style="fill:#b2ccea"/><polygon points="386.352 225.969 227.352 225.969 426.352 311.758 386.352 225.969" style="fill:#b2ccea"/><path d="M349.553,323.114h82.094l-5.3-11.356h-79.47L337.3,271h70.052l-5.295-11.356H334.624l-7.92-33.672H315.039l7.92,33.672H262.042l-.253-33.672H250.432l.254,33.672H189.042l7.919-33.672H185.3l-7.92,33.672H109.948L104.653,271h70.052l-9.587,40.761H85.648l-5.3,11.356h82.094L150.7,373.048h11.665l11.745-49.934h77.052l.376,49.934H262.9l-.377-49.934h75.366l11.745,49.934H361.3ZM176.784,311.758,186.371,271h64.4l.307,40.761Zm85.651,0L262.128,271h63.5l9.587,40.761Z" style="fill:#446996"/></svg>